<?xml version="1.0" encoding="utf-8"?>
<!-- Generator: Adobe Illustrator 24.0.0, SVG Export Plug-In . SVG Version: 6.00 Build 0)  -->
<svg version="1.1" id="Layer_1" xmlns="http://www.w3.org/2000/svg" xmlns:xlink="http://www.w3.org/1999/xlink" x="0px" y="0px"
	 width="500px" height="500px" viewBox="0 0 500 500" style="enable-background:new 0 0 500 500;" xml:space="preserve">
<style type="text/css">
	.st0{fill:#FFFFFF;}
	.st1{clip-path:url(#SVGID_2_);}
	.st2{fill:none;}
	.st3{clip-path:url(#SVGID_4_);}
	.st4{clip-path:url(#SVGID_6_);}
	.st5{opacity:0.5;fill:#C1C1C1;enable-background:new    ;}
	.st6{opacity:0.5;}
	.st7{clip-path:url(#SVGID_10_);fill:#C1C1C1;}
	.st8{opacity:0.25;}
	.st9{opacity:0.25;fill:#C1C1C1;enable-background:new    ;}
	.st10{clip-path:url(#SVGID_12_);fill:#C1C1C1;}
</style>
<g>
	<g>
		<g>
			<path d="M334.2,363.1c-27.4,4.5-55.1,5.6-82.5,4c-27.5-1.6-54.8-6.2-81-14.4c-3.3-1.1-6.5-2.1-9.8-3.3c-3.2-1.1-6.4-2.4-9.6-3.7
				c-6.3-2.7-12.6-5.5-18.7-8.8c-6-3.3-11.9-6.9-17.5-11s-10.8-8.7-15.4-13.9c-4.6-5.2-8.5-11-11.2-17.5c-2.7-6.4-3.8-13.5-3.4-20.4
				c0.5-6.9,2.8-13.6,6.3-19.5c3.4-5.9,7.9-11.1,12.9-15.7c-4.7,4.8-9,10.2-12.1,16.2c-3.1,5.9-5,12.5-5.2,19.2
				c-0.1,6.6,1.2,13.2,4.1,19.2c2.8,6,6.8,11.3,11.4,16.1c4.6,4.8,9.8,9,15.3,12.7s11.4,6.9,17.4,9.9c6,2.9,12.2,5.4,18.5,7.7
				c3.2,1.1,6.3,2.2,9.5,3.2s6.4,1.9,9.6,2.8c25.9,6.9,52.6,10.1,79.4,10.5c26.7,0.4,53.5-1.9,79.4-7.4l0,0c4-0.8,7.9,1.7,8.7,5.7
				c0.8,4-1.7,7.9-5.7,8.7C334.5,363.1,334.3,363.1,334.2,363.1z"/>
		</g>
		<g>
			<path d="M151.6,204.6c16.4-6,33.4-10.2,50.5-13s34.4-4.3,51.7-4.7c4.3-0.1,8.6-0.1,13-0.1c4.3,0.1,8.6,0.2,12.9,0.4
				c8.6,0.4,17.2,1.1,25.8,2.1c17.1,2,34.2,5.2,50.8,9.9c8.3,2.3,16.5,5.1,24.5,8.3s15.9,6.9,23.4,11.1c7.5,4.3,14.7,9.1,21.3,14.9
				c6.6,5.7,12.4,12.4,16.6,20c2,3.9,3.8,7.9,4.7,12.2c0.1,0.5,0.3,1.1,0.4,1.6l0.2,1.6c0.1,1.1,0.4,2.2,0.4,3.3l0.1,3.3
				c0,0.5,0,1.1,0,1.6l-0.1,1.6c-0.3,4.4-1.3,8.7-2.9,12.7l-0.6,1.5l-0.7,1.5c-0.5,1-0.9,2-1.4,2.9l-1.6,2.8c-0.5,1-1.2,1.8-1.8,2.7
				c-4.9,7.1-11.3,13-18.1,18.2c-6.8,5.2-14.2,9.5-21.9,13.3c7.6-4,14.8-8.5,21.5-13.9c6.6-5.3,12.8-11.3,17.4-18.4
				c0.6-0.9,1.2-1.7,1.7-2.7l1.5-2.8c0.5-0.9,0.9-1.9,1.3-2.9l0.6-1.4l0.5-1.5c1.5-3.9,2.3-8.1,2.5-12.3l0.1-1.6c0-0.5,0-1,0-1.6
				l-0.2-3.1c-0.1-1-0.3-2.1-0.5-3.1l-0.3-1.5c-0.1-0.5-0.3-1-0.4-1.5c-1-4.1-2.8-7.9-4.8-11.5c-4.3-7.2-10-13.5-16.5-18.8
				c-6.5-5.4-13.6-9.9-21.1-13.9s-15.2-7.3-23.2-10.3c-7.9-3-16-5.4-24.3-7.5c-16.4-4.2-33.2-6.9-50.1-8.4
				c-8.4-0.7-16.9-1.3-25.4-1.4c-4.2-0.1-8.5-0.1-12.7-0.1c-4.2,0.1-8.5,0.2-12.7,0.4c-16.9,0.8-33.7,2.7-50.3,5.9
				c-16.5,3.2-32.8,7.6-48.4,13.8c-2.7,1.1-5.8-0.3-6.9-3c-1.1-2.7,0.3-5.8,3-6.9C151.5,204.7,151.5,204.6,151.6,204.6z"/>
		</g>
		<path d="M158.7,226.9C158.7,226.9,158.7,226.9,158.7,226.9l-27.9-0.5c-1.5,0-2.8-0.9-3.5-2.2c-0.7-1.3-0.5-2.9,0.3-4.1l16.4-22.5
			c0.8-1.1,2.2-1.8,3.6-1.6c1.4,0.1,2.6,1,3.2,2.2l11.4,23c0.6,1.3,0.5,2.7-0.2,3.9C161.3,226.2,160.1,226.9,158.7,226.9z
			 M138.7,218.5l13.5,0.2l-5.5-11.2L138.7,218.5z"/>
		<path d="M339.5,370.5c-0.4,0-0.8-0.1-1.2-0.2c-1.3-0.4-2.3-1.5-2.7-2.9l-5.8-25c-0.3-1.4,0.1-2.8,1.1-3.8c1-1,2.4-1.4,3.8-1
			l26.9,6.9c1.4,0.4,2.6,1.5,2.9,3c0.3,1.5-0.2,3-1.3,3.9l-21.1,18.1C341.4,370.2,340.4,370.5,339.5,370.5z M339.1,347l2.8,12.2
			l10.3-8.8L339.1,347z"/>
	</g>
	<g>
		<g>
			<path d="M330.8,365.8c-26.8,4.2-54.1,5.2-81.2,3.4c-27.1-1.8-54-6.4-79.9-14.7c-3.2-1.1-6.4-2.1-9.6-3.3
				c-3.2-1.1-6.3-2.4-9.5-3.7c-6.2-2.7-12.4-5.5-18.3-8.8c-5.9-3.3-11.7-6.9-17.1-11s-10.5-8.6-15-13.7s-8.3-10.8-10.9-17.1
				c-2.6-6.3-3.6-13.2-3.2-19.9c0.6-6.8,2.9-13.3,6.3-19.2c3.4-5.9,8-11,12.9-15.6c-5,4.6-9.5,9.8-12.9,15.6
				c-3.4,5.8-5.7,12.4-6.3,19.2c-0.5,6.8,0.6,13.6,3.2,19.9s6.4,12,10.9,17c4.5,5.1,9.5,9.6,15,13.7c5.4,4,11.2,7.6,17.1,10.9
				c5.9,3.3,12.1,6.1,18.3,8.8c3.1,1.3,6.3,2.6,9.5,3.7c3.2,1.2,6.4,2.2,9.6,3.3c25.8,8.2,52.7,12.8,79.8,14.5
				c27,1.8,54.3,0.7,81-3.5L330.8,365.8z"/>
		</g>
		<g>
			<path d="M155.3,213.9c16.2-5.6,32.9-9.5,49.9-12c16.9-2.5,34-3.8,51.1-3.8c4.3,0,8.6,0.1,12.8,0.1c4.3,0.2,8.6,0.3,12.8,0.6
				c8.5,0.5,17.1,1.4,25.5,2.5c17,2.3,33.8,5.7,50.2,10.6c8.2,2.4,16.3,5.3,24.2,8.6c7.9,3.3,15.6,7,23,11.4
				c7.4,4.3,14.4,9.3,20.8,15s11.9,12.4,16,19.9c1.9,3.8,3.6,7.8,4.4,12c0.1,0.5,0.3,1,0.4,1.6l0.2,1.6c0.1,1.1,0.3,2.1,0.4,3.2
				l0.1,3.2c0,0.5,0,1.1-0.1,1.6l-0.1,1.6c-0.4,4.3-1.4,8.5-3,12.4l-0.6,1.5l-0.7,1.4c-0.5,0.9-0.9,1.9-1.5,2.9l-1.7,2.7
				c-0.5,0.9-1.2,1.8-1.8,2.6c-5,7-11.4,12.8-18.3,17.8s-14.4,9.3-22.1,13c7.7-3.7,15.2-8,22.1-13c6.9-5.1,13.3-10.9,18.3-17.8
				c0.6-0.9,1.3-1.7,1.8-2.6l1.7-2.7c0.6-0.9,1-1.9,1.5-2.8l0.7-1.4l0.6-1.5c1.7-3.9,2.6-8.1,3-12.4l0.1-1.6c0-0.5,0.1-1.1,0.1-1.6
				l-0.1-3.2c0-1.1-0.3-2.1-0.4-3.2l-0.2-1.6c-0.1-0.5-0.2-1-0.4-1.6c-0.8-4.2-2.5-8.2-4.4-12c-4.1-7.5-9.6-14.2-16-19.8
				c-6.4-5.7-13.4-10.6-20.8-14.9c-7.4-4.3-15.1-8-23-11.3s-16-6.1-24.2-8.5c-16.4-4.9-33.2-8.3-50.1-10.5c-8.5-1.1-17-1.9-25.5-2.4
				c-4.3-0.3-8.5-0.4-12.8-0.6c-4.3-0.1-8.5-0.2-12.8-0.1c-17.1,0.1-34.2,1.3-51.1,3.9c-16.9,2.6-33.6,6.4-49.7,12L155.3,213.9z"/>
		</g>
		<path d="M160.9,228.1l-29.1-1.3l17.8-23.1L160.9,228.1z M133.2,226.2l26.5,1.1l-10.3-22.2L133.2,226.2z"/>
		<path d="M336.8,377l-5.3-26.4l28.1,8L336.8,377z M332.4,351.6l4.9,24l20.7-16.8L332.4,351.6z"/>
	</g>
	<g>
		<path d="M254.4,211.3c-27.1,0-49.1-22-49.1-49.1c0-27.1,22-49.1,49.1-49.1c27.1,0,49.1,22,49.1,49.1
			C303.5,189.3,281.5,211.3,254.4,211.3z M254.4,119.7c-23.4,0-42.5,19.1-42.5,42.5s19.1,42.5,42.5,42.5c23.4,0,42.5-19.1,42.5-42.5
			S277.8,119.7,254.4,119.7z"/>
		<rect x="209.9" y="146" transform="matrix(0.9827 -0.1852 0.1852 0.9827 -23.2732 43.7626)" width="25.4" height="0.8"/>
		<path d="M270.5,219.4c-21.9,0-41.3-15.5-45.4-37.7c-2.2-12.2,0.3-24.5,7.3-34.6c7-10.2,17.5-17,29.6-19.3
			c12.2-2.2,24.5,0.3,34.6,7.3c10.2,7,17,17.5,19.3,29.6c4.6,25.1-11.9,49.3-36.9,53.9l0,0C276.1,219.1,273.3,219.4,270.5,219.4z
			 M270.6,127.8c-2.8,0-5.6,0.3-8.4,0.8c-11.9,2.2-22.3,8.9-29.1,18.9c-6.8,10-9.4,22.1-7.2,34c4.5,24.6,28.3,40.8,52.9,36.3l0,0
			c24.5-4.5,40.8-28.3,36.3-52.9c-2.2-11.9-8.9-22.3-18.9-29.1C288.5,130.6,279.7,127.8,270.6,127.8z"/>
		
			<ellipse transform="matrix(0.1602 -0.9871 0.9871 0.1602 53.544 387.3335)" class="st0" cx="254.4" cy="162.2" rx="45.8" ry="45.8"/>
		<path d="M248.1,204.5c-25.4,0-46.1-20.7-46.1-46.1c0-25.4,20.7-46.1,46.1-46.1s46.1,20.7,46.1,46.1
			C294.2,183.8,273.5,204.5,248.1,204.5z M248.1,112.9c-25.1,0-45.5,20.4-45.5,45.5s20.4,45.5,45.5,45.5s45.5-20.4,45.5-45.5
			S273.2,112.9,248.1,112.9z"/>
		<rect x="203" y="143.9" transform="matrix(0.9736 -0.2283 0.2283 0.9736 -27.2303 53.0532)" width="25.4" height="0.6"/>
		<g>
			<g>
				<defs>
					
						<ellipse id="SVGID_1_" transform="matrix(0.1602 -0.9871 0.9871 0.1602 52.0041 377.9235)" cx="248.1" cy="158.4" rx="45.8" ry="45.8"/>
				</defs>
				<clipPath id="SVGID_2_">
					<use xlink:href="#SVGID_1_"  style="overflow:visible;"/>
				</clipPath>
				<path class="st1" d="M264.7,214.8c-25.4,0-46.1-20.7-46.1-46.1c0-25.4,20.7-46.1,46.1-46.1c25.4,0,46.1,20.7,46.1,46.1
					C310.8,194.1,290.1,214.8,264.7,214.8z M264.7,123.2c-25.1,0-45.5,20.4-45.5,45.5s20.4,45.5,45.5,45.5
					c25.1,0,45.5-20.4,45.5-45.5S289.8,123.2,264.7,123.2z"/>
			</g>
			<g>
				<path d="M248.1,204.5c-25.4,0-46.1-20.7-46.1-46.1c0-25.4,20.7-46.1,46.1-46.1s46.1,20.7,46.1,46.1
					C294.2,183.8,273.5,204.5,248.1,204.5z M248.1,112.9c-25.1,0-45.5,20.4-45.5,45.5s20.4,45.5,45.5,45.5s45.5-20.4,45.5-45.5
					S273.2,112.9,248.1,112.9z"/>
			</g>
		</g>
	</g>
	<g>
		<path d="M330.2,300.3c-17,0-30.8-13.8-30.8-30.8s13.8-30.8,30.8-30.8s30.8,13.8,30.8,30.8S347.2,300.3,330.2,300.3z M330.2,242.9
			c-14.7,0-26.6,11.9-26.6,26.6s11.9,26.6,26.6,26.6s26.6-11.9,26.6-26.6S344.9,242.9,330.2,242.9z"/>
		<polygon points="302.5,261.4 302.5,260.8 318.1,257.9 318.1,258.5 		"/>
		<path d="M340.3,305.3c-13.6,0-25.8-9.7-28.5-23.6c-1.5-7.5,0.2-15.2,4.6-21.6c4.4-6.4,11-10.7,18.6-12.2
			c15.6-2.9,30.8,7.5,33.8,23.1c1.5,7.6-0.1,15.3-4.5,21.7c-4.4,6.4-11,10.7-18.6,12.1C343.8,305.2,342,305.3,340.3,305.3z
			 M340.1,248c-1.7,0-3.4,0.2-5.2,0.5c-15.5,3-25.7,17.9-22.7,33.2c3,15.4,17.9,25.5,33.2,22.7h0c7.5-1.4,14-5.6,18.3-11.9
			c4.3-6.3,5.8-13.8,4.4-21.3C365.5,257.5,353.5,248,340.1,248z"/>
		<circle class="st2" cx="330.2" cy="269.5" r="28.7"/>
		<path d="M326.2,296c-15.9,0-28.9-13-28.9-28.9c0-15.9,13-28.9,28.9-28.9s28.9,13,28.9,28.9C355.1,283,342.1,296,326.2,296z
			 M326.2,238.6c-15.7,0-28.5,12.8-28.5,28.5c0,15.7,12.8,28.5,28.5,28.5s28.5-12.8,28.5-28.5C354.7,251.4,341.9,238.6,326.2,238.6z
			"/>
		<polygon points="298.2,260.2 298.2,259.8 313.6,256.2 313.6,256.6 		"/>
		<g>
			<g>
				<defs>
					<circle id="SVGID_3_" cx="326.2" cy="267.1" r="28.7"/>
				</defs>
				<clipPath id="SVGID_4_">
					<use xlink:href="#SVGID_3_"  style="overflow:visible;"/>
				</clipPath>
				<path class="st3" d="M336.6,302.5c-15.9,0-28.9-13-28.9-28.9c0-15.9,13-28.9,28.9-28.9c15.9,0,28.9,13,28.9,28.9
					C365.5,289.5,352.5,302.5,336.6,302.5z M336.6,245.1c-15.7,0-28.5,12.8-28.5,28.5c0,15.7,12.8,28.5,28.5,28.5
					c15.7,0,28.5-12.8,28.5-28.5C365.1,257.9,352.3,245.1,336.6,245.1z"/>
			</g>
			<g>
				<path d="M326.2,296c-15.9,0-28.9-13-28.9-28.9c0-15.9,13-28.9,28.9-28.9s28.9,13,28.9,28.9C355.1,283,342.1,296,326.2,296z
					 M326.2,238.6c-15.7,0-28.5,12.8-28.5,28.5c0,15.7,12.8,28.5,28.5,28.5s28.5-12.8,28.5-28.5
					C354.7,251.4,341.9,238.6,326.2,238.6z"/>
			</g>
		</g>
	</g>
	<g>
		<path d="M199.8,330.1c-26.4,0-47.8-21.5-47.8-47.8s21.5-47.8,47.8-47.8s47.8,21.5,47.8,47.8S226.2,330.1,199.8,330.1z
			 M199.8,240.9c-22.8,0-41.4,18.6-41.4,41.4c0,22.8,18.6,41.4,41.4,41.4c22.8,0,41.4-18.6,41.4-41.4
			C241.2,259.5,222.6,240.9,199.8,240.9z"/>
		<rect x="221.7" y="285.7" transform="matrix(0.8629 -0.5054 0.5054 0.8629 -112.5253 157.5152)" width="24.7" height="0.8"/>
		<path d="M181.5,322.5c-3.8,0-7.6-0.5-11.4-1.5c-11.6-3-21.4-10.4-27.5-20.7c-6.1-10.3-7.8-22.4-4.8-34.1
			c3-11.6,10.4-21.4,20.7-27.5l0.2,0.3l-0.2-0.3c10.3-6.1,22.4-7.8,34.1-4.8c11.6,3,21.4,10.4,27.5,20.7c6.1,10.3,7.8,22.4,4.8,34.1
			c-3,11.6-10.4,21.4-20.7,27.5C197.2,320.4,189.4,322.5,181.5,322.5z M181.3,233.3c-7.8,0-15.4,2.1-22.3,6.1l0,0
			c-10.2,6-17.4,15.6-20.4,27c-3,11.4-1.3,23.3,4.7,33.5c12.4,21,39.5,28,60.4,15.7c10.2-6,17.4-15.6,20.4-27
			c3-11.4,1.3-23.3-4.7-33.5c-6-10.2-15.6-17.4-27-20.4C188.8,233.8,185,233.3,181.3,233.3z"/>
		<circle class="st2" cx="199.8" cy="282.3" r="44.6"/>
		<path d="M206.8,328.5c-24.7,0-44.9-20.1-44.9-44.9c0-24.7,20.1-44.9,44.9-44.9c24.7,0,44.9,20.1,44.9,44.9
			C251.7,308.3,231.5,328.5,206.8,328.5z M206.8,239.3c-24.4,0-44.3,19.9-44.3,44.3s19.9,44.3,44.3,44.3c24.4,0,44.3-19.9,44.3-44.3
			S231.2,239.3,206.8,239.3z"/>
		<rect x="228.9" y="285.6" transform="matrix(0.8395 -0.5433 0.5433 0.8395 -116.6216 176.9582)" width="24.7" height="0.5"/>
		<g>
			<g>
				<defs>
					<circle id="SVGID_5_" cx="206.8" cy="283.6" r="44.6"/>
				</defs>
				<clipPath id="SVGID_6_">
					<use xlink:href="#SVGID_5_"  style="overflow:visible;"/>
				</clipPath>
				<path class="st4" d="M188.3,324.6c-24.7,0-44.9-20.1-44.9-44.9s20.1-44.9,44.9-44.9c24.7,0,44.9,20.1,44.9,44.9
					S213,324.6,188.3,324.6z M188.3,235.4c-24.4,0-44.3,19.9-44.3,44.3s19.9,44.3,44.3,44.3s44.3-19.9,44.3-44.3
					S212.7,235.4,188.3,235.4z"/>
			</g>
			<g>
				<path d="M206.8,328.5c-24.7,0-44.9-20.1-44.9-44.9c0-24.7,20.1-44.9,44.9-44.9c24.7,0,44.9,20.1,44.9,44.9
					C251.7,308.3,231.5,328.5,206.8,328.5z M206.8,239.3c-24.4,0-44.3,19.9-44.3,44.3s19.9,44.3,44.3,44.3
					c24.4,0,44.3-19.9,44.3-44.3S231.2,239.3,206.8,239.3z"/>
			</g>
		</g>
	</g>
	<polygon class="st5" points="370,340.5 331.1,330.5 339.5,366.5 	"/>
	<g class="st6">
		<g>
			<circle id="SVGID_7_" class="st5" cx="326.2" cy="267.1" r="28.7"/>
		</g>
		<g>
			<defs>
				<circle id="SVGID_8_" cx="326.2" cy="267.1" r="28.7"/>
			</defs>
			<clipPath id="SVGID_10_">
				<use xlink:href="#SVGID_8_"  style="overflow:visible;"/>
			</clipPath>
			<circle class="st7" cx="336.6" cy="273.6" r="28.7"/>
		</g>
	</g>
	<g class="st8">
		<g>
			<circle id="SVGID_9_" class="st9" cx="182.1" cy="263.4" r="21.1"/>
		</g>
		<g>
			<defs>
				<circle id="SVGID_11_" cx="182.1" cy="263.4" r="21.1"/>
			</defs>
			<clipPath id="SVGID_12_">
				<use xlink:href="#SVGID_11_"  style="overflow:visible;"/>
			</clipPath>
			<circle class="st10" cx="189.7" cy="268.2" r="21.1"/>
		</g>
	</g>
</g>
</svg>
