<?xml version="1.0" encoding="utf-8"?>
<!-- Generator: Adobe Illustrator 24.0.0, SVG Export Plug-In . SVG Version: 6.00 Build 0)  -->
<svg version="1.1" id="Layer_1" xmlns="http://www.w3.org/2000/svg" xmlns:xlink="http://www.w3.org/1999/xlink" x="0px" y="0px"
	 width="500px" height="500px" viewBox="0 0 500 500" style="enable-background:new 0 0 500 500;" xml:space="preserve">
<style type="text/css">
	.st0{fill:#FFFFFF;}
	.st1{opacity:0.5;fill:#C1C1C1;enable-background:new    ;}
	.st2{opacity:0.25;}
	.st3{opacity:0.5;enable-background:new    ;}
</style>
<g>
	<g>
		<g>
			<polyline class="st0" points="323.5,284.5 323.5,329.5 74.5,329.5 74.5,286.5 179.5,235.5 			"/>
			<path d="M323.5,333h-249c-1.9,0-3.5-1.6-3.5-3.5v-43c0-1.3,0.8-2.6,2-3.1l105-51c1.7-0.8,3.8-0.1,4.7,1.6
				c0.8,1.7,0.1,3.8-1.6,4.7l-103,50V326h242v-41.5c0-1.9,1.6-3.5,3.5-3.5s3.5,1.6,3.5,3.5v45C327,331.4,325.4,333,323.5,333z"/>
		</g>
		<g>
			<polyline class="st0" points="199.5,229.5 199.5,265.5 448.5,265.5 448.5,226.5 331.5,271.5 			"/>
			<path d="M331.5,275c-1.4,0-2.7-0.9-3.3-2.2c-0.5-1.3-0.1-2.8,0.8-3.8H199.5c-1.9,0-3.5-1.6-3.5-3.5v-36c0-1.9,1.6-3.5,3.5-3.5
				s3.5,1.6,3.5,3.5V262h143.5l100.8-38.8c1.1-0.4,2.3-0.3,3.2,0.4c1,0.7,1.5,1.7,1.5,2.9v39c0,1.9-1.6,3.5-3.5,3.5H347.8l-15,5.8
				C332.3,274.9,331.9,275,331.5,275z M366,262h79v-30.4L366,262z"/>
		</g>
		<rect x="114.7" y="307.9" transform="matrix(0.9914 -0.1308 0.1308 0.9914 -38.4079 31.3534)" width="209.7" height="0.5"/>
		<polygon points="73.4,329.5 199.4,265.3 199.6,265.7 76.6,328.5 323.5,284.6 323.5,285 		"/>
		<path d="M323.5,333c-1.3,0-2.5-0.7-3.1-1.9c-0.9-1.7-0.2-3.8,1.5-4.7l125-64c1.7-0.9,3.8-0.2,4.7,1.5c0.9,1.7,0.2,3.8-1.5,4.7
			l-125,64C324.6,332.9,324,333,323.5,333z"/>
		<path d="M234.5,296h-145c-1.9,0-3.5-1.6-3.5-3.5s1.6-3.5,3.5-3.5h145c1.9,0,3.5,1.6,3.5,3.5S236.4,296,234.5,296z"/>
		<polygon class="st1" points="423,224.5 224.5,224.5 224.5,254.5 342.7,254.5 		"/>
		<path d="M302.5,319h-57c-0.3,0-0.5-0.2-0.5-0.5s0.2-0.5,0.5-0.5h57c0.3,0,0.5,0.2,0.5,0.5S302.8,319,302.5,319z"/>
	</g>
	<g class="st2">
		<polygon points="320.2,331.8 74.7,320.5 76.6,277.7 76.9,277.6 182.4,232.2 182.6,232.8 77.4,278.1 75.5,319.9 319.6,331 
			321.5,287.1 322.3,287.1 		"/>
		<path d="M330.4,275l-0.2-0.7l13.8-4.6l-143.6-6.5l1.7-35.8l0.7,0l-1.7,35l144.7,6.6l101.9-33.9l-1.8,39.2l-99.9-4.5L330.4,275z
			 M347.9,269.2l97.3,4.4l1.8-37.4L347.9,269.2z"/>
		
			<rect x="115.4" y="305.4" transform="matrix(0.9964 -8.437546e-02 8.437546e-02 0.9964 -25.0181 19.539)" width="206.4" height="0.7"/>
		<polygon points="73.2,320.5 200.6,262.6 201,263.2 78,319.1 321.9,287 321.9,287.8 		"/>
		<rect x="313.7" y="302.3" transform="matrix(0.9094 -0.4158 0.4158 0.9094 -91.21 186.5672)" width="138.2" height="0.7"/>
		
			<rect x="162.4" y="216.4" transform="matrix(4.556666e-02 -0.999 0.999 4.556666e-02 -132.1171 437.2191)" width="0.7" height="142.6"/>
		<path class="st3" d="M342.1,258.9L342.1,258.9l-116.6-5.3l1.4-30.2l197.5,9L342.1,258.9z M226.3,252.9l115.8,5.3l78.3-25.3
			l-192.7-8.8L226.3,252.9z"/>
		
			<rect x="271.3" y="290.3" transform="matrix(4.459883e-02 -0.999 0.999 4.459883e-02 -58.4502 575.5814)" width="0.7" height="56.1"/>
	</g>
	<path d="M278,184h-35c-2.2,0-4-1.8-4-4v-35c0-2.2,1.8-4,4-4h35c2.2,0,4,1.8,4,4v35C282,182.2,280.2,184,278,184z M247,176h27v-27
		h-27V176z"/>
	<path d="M345.5,204.6l-11.1-11.1l11.1-11.1l11.1,11.1L345.5,204.6z M335.4,193.5l10.1,10.1l10.1-10.1l-10.1-10.1L335.4,193.5z"/>
	<rect x="266" y="219" transform="matrix(0.7071 -0.7071 0.7071 0.7071 -80.0511 259.7328)" width="15" height="15"/>
</g>
</svg>
