<?xml version="1.0" encoding="utf-8"?>
<!-- Generator: Adobe Illustrator 23.1.1, SVG Export Plug-In . SVG Version: 6.00 Build 0)  -->
<svg version="1.1" id="Layer_1" xmlns="http://www.w3.org/2000/svg" xmlns:xlink="http://www.w3.org/1999/xlink" x="0px" y="0px"
	 width="500px" height="500px" viewBox="0 0 500 500" style="enable-background:new 0 0 500 500;" xml:space="preserve">
<style type="text/css">
	.st0{fill:#FFFFFF;}
	.st1{clip-path:url(#SVGID_2_);}
	.st2{fill:#C1C1C1;}
	.st3{fill:#E2E2E2;}
	.st4{opacity:0.25;}
	.st5{clip-path:url(#SVGID_4_);}
</style>
<path d="M139.5,170C115,170,95,150,95,125.5S115,81,139.5,81s44.5,20,44.5,44.5S164,170,139.5,170z M139.5,87
	c-21.2,0-38.5,17.3-38.5,38.5s17.3,38.5,38.5,38.5s38.5-17.3,38.5-38.5S160.7,87,139.5,87z"/>
<path d="M333.2,410.7H152.8c-1.7,0-3-1.3-3-3V271.9c0-1.2,0.8-2.3,1.9-2.8l17.5-6.9V227c0-1.2,0.7-2.3,1.8-2.8l16.3-6.9v-26.5
	c0-1.2,0.7-2.2,1.8-2.7l12.8-5.8v-16.7c0-1.2,0.7-2.3,1.8-2.8L215,158l0.2-24.2c0-0.7,0.2-1.3,0.7-1.9L257,81.5
	c0.5-0.6,1.3-1,2.1-1.1c0.8-0.1,1.7,0.3,2.3,0.8l54.7,52.6c0.8,0.8,1.1,2,0.8,3.2c0,0,0,0.1,0,0.1v19.5l17,3.9
	c1.4,0.3,2.3,1.5,2.3,2.9v244.2C336.2,409.3,334.8,410.7,333.2,410.7z M259.3,404.7h70.8V165.8l-17-3.9c-1.4-0.3-2.3-1.5-2.3-2.9
	v-22l-51.2-49.2l-38.4,47.1L221,160c0,1.2-0.7,2.3-1.8,2.7l-11.3,4.8v16.6c0,1.2-0.7,2.2-1.8,2.7l-12.8,5.8v26.6
	c0,1.2-0.7,2.3-1.8,2.8l-16.3,6.9v35.3c0,1.2-0.8,2.3-1.9,2.8l-17.5,6.9v130.7H259.3z M218,160L218,160L218,160z"/>
<path d="M381,411.1h-94.9c-1.7,0-3-1.3-3-3V269c0-1.7,1.3-3,3-3H381c1.7,0,3,1.3,3,3v139.1C384,409.7,382.7,411.1,381,411.1z
	 M289.1,405.1H378V272h-88.9V405.1z"/>
<g>
	<rect x="362.8" y="329" class="st0" width="30.2" height="79.3"/>
	<path d="M393,411.3h-30.2c-1.7,0-3-1.3-3-3V329c0-1.7,1.3-3,3-3H393c1.7,0,3,1.3,3,3v79.3C396,410,394.7,411.3,393,411.3z
		 M365.8,405.3H390V332h-24.2V405.3z"/>
</g>
<rect x="313.4" y="142.2" width="0.8" height="265.9"/>
<rect x="119.9" y="139.7" width="0.8" height="23"/>
<g>
	<defs>
		<circle id="SVGID_1_" cx="139.5" cy="125.5" r="41.5"/>
	</defs>
	<clipPath id="SVGID_2_">
		<use xlink:href="#SVGID_1_"  style="overflow:visible;"/>
	</clipPath>
	<path class="st1" d="M152,154.9c-23.1,0-41.9-18.8-41.9-41.9s18.8-41.9,41.9-41.9s41.9,18.8,41.9,41.9S175.1,154.9,152,154.9z
		 M152,71.9c-22.7,0-41.1,18.4-41.1,41.1s18.4,41.1,41.1,41.1s41.1-18.4,41.1-41.1S174.7,71.9,152,71.9z"/>
</g>
<polygon points="153.4,408.1 152.6,407.9 189.6,310.9 190.1,191 190.9,191 190.4,311.1 190.4,311.1 "/>
<rect x="164.1" y="269" width="0.8" height="109"/>
<rect x="313.5" y="267.5" class="st2" width="20" height="141"/>
<rect x="363.5" y="382" class="st2" width="28" height="25.5"/>
<polygon class="st3" points="245,103 245,408.5 236.8,408.5 218,156.3 218.7,133.5 "/>
<path d="M245.5,409h-9.1l0-0.4l-18.8-252.2l0.7-23l27.2-31V409z M237.2,408h7.3V104.7l-25.3,29l-0.7,22.6L237.2,408z"/>
<g class="st4">
	<path d="M135.1,172.2c-22.1,0-40.7-17.5-41.7-39.8c-1.1-23,16.8-42.6,39.8-43.6c11.1-0.5,21.8,3.3,30.1,10.9
		c8.2,7.5,13.1,17.8,13.6,28.9s-3.3,21.8-10.9,30.1c-7.5,8.2-17.8,13.1-28.9,13.6C136.4,172.2,135.7,172.2,135.1,172.2z M135.1,89.2
		c-0.6,0-1.3,0-1.9,0c-22.7,1-40.4,20.4-39.3,43.1c0.5,11,5.3,21.2,13.4,28.6c8.1,7.4,18.7,11.2,29.7,10.7
		c11-0.5,21.2-5.3,28.6-13.4s11.2-18.7,10.7-29.7c-0.5-11-5.3-21.2-13.4-28.6C155.2,93,145.4,89.2,135.1,89.2z"/>
	<path d="M161.1,412l0-0.2L154.8,276l0.2-0.1l18.8-8.5l-1.7-37.2l17.8-8.5l-1.3-28.5l14.2-7.2l-0.9-18.6l12.9-6.2l-1-26.1l0.1-0.1
		l39-52.5l0.2,0.2l57.4,50.4l-0.5,0.1l1,22.6l19.5,3.5l0,0.2l11.2,244.2l-0.2,0L161.1,412z M155.4,276.3l6.2,135.2l179.7-8.3
		L330,159.7l-19.5-3.5l0-0.2l-1.1-23.1l-56.5-49.6l-38.6,52l1,26.2l-12.9,6.2l0.9,18.6l-14.2,7.2l1.3,28.5l-17.8,8.5l1.7,37.2
		l-0.2,0.1L155.4,276.3z"/>
	<path d="M294.2,406.2l0-0.2l-6.4-139.1l0.2,0l95.1-4.4l0,0.2l6.4,139.1l-0.2,0L294.2,406.2z M288.3,267.3l6.4,138.4l94.3-4.3
		L382.7,263L288.3,267.3z"/>
	<path d="M370.9,403l0-0.2l-3.7-79.5l0.2,0l30.4-1.4l0,0.2l3.7,79.5l-0.2,0L370.9,403z M367.8,323.8l3.6,78.7l29.6-1.4l-3.6-78.7
		L367.8,323.8z"/>
	
		<rect x="315.8" y="139" transform="matrix(0.9989 -4.593797e-02 4.593797e-02 0.9989 -12.1605 14.8066)" width="0.5" height="265.9"/>
	<rect x="116.8" y="145.6" transform="matrix(0.9989 -4.593166e-02 4.593166e-02 0.9989 -7.0902 5.5409)" width="0.5" height="23"/>
	<g>
		<defs>
			<path id="SVGID_3_" d="M135.1,172.2c-22.1,0-40.7-17.5-41.7-39.8c-1.1-23,16.8-42.6,39.8-43.6c11.1-0.5,21.8,3.3,30.1,10.9
				c8.2,7.5,13.1,17.8,13.6,28.9s-3.3,21.8-10.9,30.1c-7.5,8.2-17.8,13.1-28.9,13.6C136.4,172.2,135.7,172.2,135.1,172.2z
				 M135.1,89.2c-0.6,0-1.3,0-1.9,0c-22.7,1-40.4,20.4-39.3,43.1c0.5,11,5.3,21.2,13.4,28.6c8.1,7.4,18.7,11.2,29.7,10.7
				c11-0.5,21.2-5.3,28.6-13.4s11.2-18.7,10.7-29.7c-0.5-11-5.3-21.2-13.4-28.6C155.2,93,145.4,89.2,135.1,89.2z"/>
		</defs>
		<use xlink:href="#SVGID_3_"  style="overflow:visible;"/>
		<clipPath id="SVGID_4_">
			<use xlink:href="#SVGID_3_"  style="overflow:visible;"/>
		</clipPath>
		<path class="st5" d="M146.9,159.2c-10.4,0-20.3-3.8-28.1-10.9c-8.2-7.5-13.1-17.8-13.6-28.9c-1.1-23,16.8-42.6,39.8-43.6
			c23-1.1,42.6,16.8,43.6,39.8c0.5,11.1-3.3,21.8-10.9,30.1c-7.5,8.2-17.8,13.1-28.9,13.6C148.3,159.2,147.6,159.2,146.9,159.2z
			 M147,76.2c-0.6,0-1.3,0-1.9,0c-22.7,1-40.4,20.4-39.3,43.1c0.5,11,5.3,21.2,13.4,28.6c8.1,7.4,18.7,11.2,29.7,10.7
			c11-0.5,21.2-5.3,28.6-13.4s11.2-18.7,10.7-29.7C187.2,93.5,168.9,76.2,147,76.2z"/>
	</g>
	<polygon points="161.8,412.2 161.3,412 193.8,313.4 188.8,193.6 189.3,193.6 194.3,313.5 	"/>
	
		<rect x="168.9" y="272.6" transform="matrix(0.9989 -4.593841e-02 4.593841e-02 0.9989 -14.8497 8.116)" width="0.5" height="109"/>
	<polygon points="245,408 245,407.8 214.7,157.7 215.2,157.6 245.5,407.5 253.2,407.1 239.1,101.2 239.6,101.2 253.7,407.6 	"/>
</g>
</svg>
