<?xml version="1.0" encoding="utf-8"?>
<!-- Generator: Adobe Illustrator 23.1.1, SVG Export Plug-In . SVG Version: 6.00 Build 0)  -->
<svg version="1.1" id="Layer_1" xmlns="http://www.w3.org/2000/svg" xmlns:xlink="http://www.w3.org/1999/xlink" x="0px" y="0px"
	 width="500px" height="500px" viewBox="0 0 500 500" style="enable-background:new 0 0 500 500;" xml:space="preserve">
<style type="text/css">
	.st0{opacity:0.5;fill:#C1C1C1;}
	.st1{clip-path:url(#SVGID_2_);}
	.st2{opacity:0.25;}
	.st3{clip-path:url(#SVGID_4_);}
</style>
<polygon class="st0" points="313.3,142.3 290.1,186.1 318.8,226.6 342,182.7 "/>
<path d="M263.5,290.1c-66.6,0-120.8-45.3-120.8-100.9S196.9,88.3,263.5,88.3s120.8,45.3,120.8,100.9S330.1,290.1,263.5,290.1z
	 M263.5,92.8c-64.1,0-116.2,43.2-116.2,96.4s52.1,96.4,116.2,96.4s116.2-43.2,116.2-96.4S327.6,92.8,263.5,92.8z"/>
<g>
	<path d="M208.1,234.8c-0.8,0-1.5-0.4-1.9-1.1l-28.4-46.1c-0.4-0.7-0.4-1.7,0-2.4l28.4-46.1c0.4-0.7,1.1-1.1,1.9-1.1
		s1.5,0.4,1.9,1.1l28.4,46.1c0.4,0.7,0.4,1.7,0,2.4L210,233.7C209.6,234.4,208.9,234.8,208.1,234.8z M182.4,186.4l25.7,41.8
		l25.7-41.8l-25.7-41.8L182.4,186.4z"/>
	<path d="M264.9,234.8c-0.8,0-1.5-0.4-1.9-1.1l-28.4-46.1c-0.4-0.7-0.4-1.7,0-2.4l28.4-46.1c0.4-0.7,1.1-1.1,1.9-1.1
		s1.5,0.4,1.9,1.1l28.4,46.1c0.4,0.7,0.4,1.7,0,2.4l-28.4,46.1C266.4,234.4,265.7,234.8,264.9,234.8z M239.2,186.4l25.7,41.8
		l25.7-41.8l-25.7-41.8L239.2,186.4z"/>
	<path d="M321.7,234.8c-0.8,0-1.5-0.4-1.9-1.1l-28.4-46.1c-0.4-0.7-0.4-1.7,0-2.4l28.4-46.1c0.4-0.7,1.1-1.1,1.9-1.1l0,0
		c0.8,0,1.5,0.4,1.9,1.1l28.4,46.1c0.4,0.7,0.4,1.7,0,2.4l-28.4,46.1C323.2,234.4,322.5,234.8,321.7,234.8z M296,186.4l25.7,41.8
		l25.7-41.8l-25.7-41.8L296,186.4z"/>
</g>
<rect x="311.8" y="260.7" width="0.7" height="19.6"/>
<g>
	<defs>
		<ellipse id="SVGID_1_" cx="263.5" cy="189.2" rx="118.5" ry="98.7"/>
	</defs>
	<clipPath id="SVGID_2_">
		<use xlink:href="#SVGID_1_"  style="overflow:visible;"/>
	</clipPath>
	<path class="st1" d="M255.5,273c-65.5,0-118.8-44.4-118.8-99c0-54.6,53.3-99,118.8-99s118.8,44.4,118.8,99
		C374.3,228.6,321,273,255.5,273z M255.5,75.7c-65.2,0-118.2,44.1-118.2,98.3c0,54.2,53,98.3,118.2,98.3s118.2-44.1,118.2-98.3
		C373.6,119.8,320.6,75.7,255.5,75.7z"/>
</g>
<path d="M263.5,350.2c-1.3,0-2.3-1-2.3-2.3V288c0-1.3,1-2.3,2.3-2.3s2.3,1,2.3,2.3v59.9C265.8,349.2,264.8,350.2,263.5,350.2z"/>
<path d="M224.9,334c-2.9,1-5.7,2.2-8.5,3.4c-2.8,1.3-5.5,2.6-8.1,4.2c-1.3,0.8-2.5,1.7-3.6,2.7c-0.6,0.5-1.1,1-1.5,1.6
	c-0.4,0.6-0.8,1.2-0.9,1.9c-0.2,1.4,0.7,2.6,1.9,3.4c1.2,0.8,2.6,1.4,4,1.9c2.9,1,5.8,1.6,8.8,2.1c3,0.5,6,0.9,9.1,1.2
	c6.1,0.6,12.2,0.9,18.3,1.2c12.2,0.4,24.5,0.4,36.7,0.2l18.4-0.4c6.2-0.1,12.3-0.1,18.5,0.1c6.2,0.2,12.4,0.6,18.6,1.6
	c1.6,0.3,3.1,0.6,4.7,1c1.6,0.4,3.2,0.9,4.8,1.7c0.8,0.4,1.7,0.9,2.5,1.7c0.8,0.7,1.7,1.9,2,3.4c0.3,1.5-0.1,2.9-0.6,4
	c-0.5,1-1.1,1.8-1.8,2.5c-1.3,1.4-2.6,2.4-3.9,3.4c-1.3,1-2.7,1.8-4.1,2.6c-2.8,1.6-5.6,3-8.4,4.4c-5.7,2.7-11.4,5-17.2,7.3
	c-11.5,4.5-23.2,8.4-35,12.2c-11.7,3.8-23.5,7.3-35.4,10.6c-2.4,0.7-4.8-0.7-5.5-3.1s0.7-4.8,3.1-5.5c0,0,0.1,0,0.1,0l0.1,0
	c11.8-2.9,23.7-6.1,35.4-9.5c11.7-3.4,23.4-7,34.9-11c5.7-2,11.4-4.2,16.9-6.6c2.8-1.2,5.5-2.5,8-3.9c1.3-0.7,2.5-1.4,3.7-2.2
	c1.2-0.8,2.3-1.6,3.1-2.5c0.4-0.4,0.7-0.9,0.9-1.2c0.2-0.3,0.2-0.5,0.2-0.5c0,0,0-0.2-0.3-0.5c-0.3-0.3-0.7-0.6-1.3-0.9
	c-2.2-1.2-5.2-1.9-8-2.5c-5.8-1.1-11.9-1.7-18-2.1c-6.1-0.4-12.2-0.6-18.3-0.7l-18.4-0.2c-12.3-0.2-24.6-0.5-36.9-1.3
	c-6.1-0.4-12.3-0.9-18.4-1.7c-3.1-0.4-6.1-0.9-9.1-1.5c-3-0.6-6-1.3-9-2.4c-1.5-0.6-2.9-1.2-4.2-2.2c-0.6-0.5-1.3-1.1-1.7-1.8
	c-0.4-0.7-0.6-1.7-0.4-2.5c0.2-0.9,0.6-1.6,1.1-2.2c0.5-0.6,1.1-1.2,1.6-1.7c1.2-1,2.5-1.9,3.8-2.7c2.7-1.6,5.5-2.8,8.3-4
	C219.1,336,221.9,334.9,224.9,334z"/>
<path d="M283.4,205.3h-35.9l4.8-14.3l-58-28l0.3-0.6l58,28l15.1-45.3l0.6,0.2L253,190.7L283.4,205.3z M248.4,204.6h32.1l-27.6-13.3
	L248.4,204.6z"/>
<g class="st2">
	<path d="M252.5,286.3c-28.2,0-55-8.3-76.2-23.7c-23.6-17.2-37.6-41.2-39.3-67.5c-1.7-26.4,9-52,30.2-72.1
		c21.2-20.1,50.2-32.3,81.9-34.4c31.6-2.1,62.1,6.3,85.7,23.4c23.6,17.2,37.6,41.2,39.3,67.5c1.7,26.4-9,52-30.2,72.1
		c-21.2,20.1-50.2,32.3-81.9,34.4C258.8,286.2,255.6,286.3,252.5,286.3z M258.5,88.7c-3.1,0-6.3,0.1-9.4,0.3
		c-31.5,2.1-60.5,14.2-81.6,34.2c-21.1,20-31.7,45.5-30,71.7s15.6,50.1,39.1,67.2c23.5,17.1,53.8,25.4,85.3,23.3
		c31.5-2.1,60.5-14.2,81.6-34.2c21.1-20,31.7-45.5,30-71.7c-1.7-26.2-15.6-50.1-39.1-67.2C313.3,97,286.6,88.7,258.5,88.7z"/>
	<g>
		<path d="M203.1,234.6l-0.2-0.3L171.4,190l0.1-0.1l25.5-48.2l0.2,0.3l31.4,44.3l-0.1,0.1L203.1,234.6z M172,189.9l31,43.7
			l25.1-47.4l-31-43.7L172,189.9z"/>
		<path d="M259.8,230.9l-0.2-0.3l-31.4-44.3l0.1-0.1l25.5-48.2l0.2,0.3l31.4,44.3l-0.1,0.1L259.8,230.9z M228.7,186.2l31,43.7
			l25.1-47.4l-31-43.7L228.7,186.2z"/>
		<path d="M316.5,227.2l-0.2-0.3l-31.4-44.3l0.1-0.1l25.5-48.2l0.2,0.3l31.4,44.3L342,179L316.5,227.2z M285.4,182.5l31,43.7
			l25.1-47.4l-31-43.7L285.4,182.5z"/>
	</g>
	<polygon points="309.7,275 308.4,255.4 308.9,255.4 310.2,275 	"/>
	<g>
		<defs>
			<path id="SVGID_3_" d="M252.5,286.3c-28.2,0-55-8.3-76.2-23.7c-23.6-17.2-37.6-41.2-39.3-67.5c-1.7-26.4,9-52,30.2-72.1
				c21.2-20.1,50.2-32.3,81.9-34.4c31.6-2.1,62.1,6.3,85.7,23.4c23.6,17.2,37.6,41.2,39.3,67.5c1.7,26.4-9,52-30.2,72.1
				c-21.2,20.1-50.2,32.3-81.9,34.4C258.8,286.2,255.6,286.3,252.5,286.3z M258.5,88.7c-3.1,0-6.3,0.1-9.4,0.3
				c-31.5,2.1-60.5,14.2-81.6,34.2c-21.1,20-31.7,45.5-30,71.7s15.6,50.1,39.1,67.2c23.5,17.1,53.8,25.4,85.3,23.3
				c31.5-2.1,60.5-14.2,81.6-34.2c21.1-20,31.7-45.5,30-71.7c-1.7-26.2-15.6-50.1-39.1-67.2C313.3,97,286.6,88.7,258.5,88.7z"/>
		</defs>
		<use xlink:href="#SVGID_3_"  style="overflow:visible;"/>
		<clipPath id="SVGID_4_">
			<use xlink:href="#SVGID_3_"  style="overflow:visible;"/>
		</clipPath>
		<path class="st3" d="M243.6,271.6c-61.3,0-112.2-39.5-115.6-91.3c-1.7-26.4,9-52,30.2-72.1c21.2-20.1,50.2-32.3,81.9-34.4
			c65.3-4.3,121.4,36.5,124.9,91c3.6,54.4-46.7,102.2-112.1,106.4C249.8,271.5,246.7,271.6,243.6,271.6z M249.4,74.1
			c-3.1,0-6.2,0.1-9.3,0.3c-31.5,2.1-60.5,14.2-81.6,34.2c-21.1,20-31.7,45.5-30,71.7c3.5,54.2,59.4,94.7,124.4,90.5
			c65.1-4.2,115.1-51.8,111.6-105.9C361.1,113.4,310.4,74.1,249.4,74.1z"/>
	</g>
	<polygon points="265.6,345.7 261.7,285.9 262.2,285.9 266.1,345.7 	"/>
	<path d="M226.4,334.3c-2.8,1.2-5.6,2.4-8.4,3.8c-2.7,1.4-5.4,2.9-7.9,4.6c-1.3,0.9-2.5,1.8-3.5,2.9c-0.5,0.5-1,1.1-1.5,1.8
		c-0.4,0.6-0.8,1.3-0.8,2.1c-0.1,0.8,0.1,1.5,0.6,2.2c0.4,0.6,1,1.1,1.7,1.5c1.3,0.8,2.8,1.3,4.2,1.8c2.9,0.8,6,1.3,9,1.7
		c3,0.4,6.1,0.6,9.2,0.7c6.1,0.3,12.3,0.3,18.4,0.2c12.3-0.2,24.5-0.8,36.8-1.7l18.4-1.3c6.1-0.4,12.3-0.7,18.4-0.8
		c6.1-0.1,12.3,0,18.4,0.6c3,0.4,6.1,0.8,9,2c0.7,0.3,1.4,0.7,2,1.2c0.6,0.5,1.1,1.1,1.3,1.9c0.2,0.8,0,1.6-0.3,2.3
		c-0.3,0.7-0.8,1.4-1.2,2c-2,2.4-4.6,4.2-7.1,5.9c-2.6,1.7-5.2,3.2-7.9,4.7c-5.4,2.9-11,5.5-16.6,8c-11.2,5-22.6,9.5-34.1,13.9
		c-11.5,4.3-23,8.5-34.7,12.4l-0.2-0.5c11.6-3.9,23.2-8,34.7-12.3c11.5-4.3,22.9-8.8,34.1-13.8c5.6-2.5,11.2-5.1,16.6-8
		c2.7-1.5,5.4-3,7.9-4.6c2.5-1.7,5.1-3.5,7-5.8c0.9-1.1,1.8-2.6,1.5-4c-0.4-1.4-1.8-2.3-3.2-2.9c-2.8-1.2-5.9-1.6-8.9-2
		c-6.1-0.7-12.2-0.7-18.4-0.6c-6.1,0.1-12.3,0.4-18.4,0.8l-18.4,1.3c-12.2,0.8-24.5,1.4-36.8,1.6c-6.1,0.1-12.3,0-18.4-0.3
		c-3.1-0.2-6.1-0.4-9.2-0.7c-3-0.4-6.1-0.8-9-1.7c-1.5-0.4-2.9-1-4.2-1.8c-0.6-0.4-1.3-0.9-1.7-1.6c-0.4-0.6-0.7-1.4-0.6-2.2
		c0.1-0.8,0.4-1.5,0.8-2.1c0.4-0.6,0.9-1.2,1.5-1.8c1.1-1.1,2.3-2,3.6-2.9c2.5-1.8,5.2-3.2,7.9-4.6
		C220.8,336.7,223.6,335.4,226.4,334.3z"/>
	<path d="M255.5,363.5c15.8-0.4,31.7-0.7,47.5-0.1c4,0.2,7.9,0.4,11.9,0.9c2,0.2,4,0.5,5.9,0.9c1,0.2,2,0.5,3,0.8
		c0.5,0.2,1,0.4,1.5,0.7c0.5,0.3,1,0.6,1.4,1.3c0.1,0.2,0.1,0.4,0.2,0.5c0,0.2,0.1,0.4,0,0.6c0,0.4-0.2,0.7-0.3,1
		c-0.3,0.6-0.7,1-1.2,1.3c-0.8,0.7-1.7,1.2-2.6,1.7c-1.8,0.9-3.7,1.7-5.5,2.4c-3.7,1.4-7.5,2.6-11.4,3.7
		c-15.3,4.4-30.8,7.8-46.3,11.1c-15.5,3.2-31.1,6.3-46.7,9.1l-0.7-3.9c15.6-2.5,31.2-5.1,46.8-8.1c15.5-3,31.1-6,46.3-10.1
		c3.8-1,7.6-2.1,11.3-3.4c1.8-0.7,3.7-1.4,5.4-2.2c0.9-0.4,1.7-0.9,2.4-1.5c0.3-0.3,0.7-0.6,0.8-0.9c0.2-0.3,0.2-0.5,0.1-0.7
		c-0.1-0.2-0.4-0.5-0.8-0.7c-0.4-0.2-0.8-0.4-1.2-0.6c-0.9-0.3-1.8-0.6-2.7-0.8c-1.9-0.4-3.8-0.8-5.8-1c-3.9-0.5-7.8-0.9-11.8-1.1
		C287.2,363.5,271.3,363.4,255.5,363.5z"/>
	<path d="M240.7,204.3l3.8-14.5l-59.8-24.2l0.2-0.5l59.8,24.2l12.2-46.3l0.5,0.1l-12.2,46.4l31,12.5L240.7,204.3z M245,189.9
		l-3.6,13.8l32.5-2.1L245,189.9z"/>
</g>
<path class="st0" d="M312.1,260.7v19.6c0,0-79,17.2-112.1-5.3s-39.9-42.4-39.9-42.4S210.2,295.3,312.1,260.7z"/>
</svg>
