<?xml version="1.0" encoding="utf-8"?>
<!-- Generator: Adobe Illustrator 23.1.1, SVG Export Plug-In . SVG Version: 6.00 Build 0)  -->
<svg version="1.1" id="Layer_1" xmlns="http://www.w3.org/2000/svg" xmlns:xlink="http://www.w3.org/1999/xlink" x="0px" y="0px"
	 width="500px" height="500px" viewBox="0 0 500 500" style="enable-background:new 0 0 500 500;" xml:space="preserve">
<style type="text/css">
	.st0{clip-path:url(#SVGID_2_);}
	.st1{fill:#FFFFFF;}
	.st2{fill:#C1C1C1;}
	.st3{opacity:0.5;fill:#C1C1C1;}
	.st4{fill:none;stroke:#000000;stroke-miterlimit:10;}
	.st5{opacity:0.5;}
	.st6{clip-path:url(#SVGID_4_);}
</style>
<g>
	<defs>
		<path id="SVGID_1_" d="M232.4,140.6c0-15.8,12.7-28.5,28.5-28.5c15.8,0,28.5,12.7,28.5,28.4c0,15.8-12.8,28.7-28.5,28.7
			C245.1,169.2,232.4,156.4,232.4,140.6z"/>
	</defs>
	<clipPath id="SVGID_2_">
		<use xlink:href="#SVGID_1_"  style="overflow:visible;"/>
	</clipPath>
	<path class="st0" d="M262.9,155.5C262.9,155.5,262.9,155.5,262.9,155.5c-15.9,0-28.8-13-28.9-28.9c0-7.7,3-15,8.4-20.4
		c5.4-5.4,12.6-8.4,20.3-8.4c0,0,0,0,0,0c15.9,0,28.9,12.9,28.9,28.8c0,7.8-3,15.1-8.5,20.6C277.8,152.5,270.6,155.5,262.9,155.5z
		 M234.7,126.6c0,15.5,12.6,28.2,28.1,28.3c0,0,0.1,0,0.1,0c7.5,0,14.5-2.9,19.8-8.2c5.4-5.4,8.3-12.5,8.3-20.1
		c0-15.5-12.7-28.1-28.2-28.1c0,0,0,0,0,0c-7.5,0-14.6,2.9-19.9,8.2C237.7,112,234.7,119.1,234.7,126.6z"/>
</g>
<g>
	<rect x="119" y="255" class="st1" width="283" height="32"/>
	<path d="M402,290H119c-1.7,0-3-1.3-3-3v-32c0-1.7,1.3-3,3-3h283c1.7,0,3,1.3,3,3v32C405,288.7,403.7,290,402,290z M122,284h277v-26
		H122V284z"/>
</g>
<g>
	<rect x="383" y="288" class="st1" width="19" height="110"/>
	<path d="M402,401h-19c-1.7,0-3-1.3-3-3V288c0-1.7,1.3-3,3-3h19c1.7,0,3,1.3,3,3v110C405,399.7,403.7,401,402,401z M386,395h13V291
		h-13V395z"/>
</g>
<g>
	<rect x="119" y="288" class="st1" width="19" height="110"/>
	<path d="M138,401h-19c-1.7,0-3-1.3-3-3V288c0-1.7,1.3-3,3-3h19c1.7,0,3,1.3,3,3v110C141,399.7,139.7,401,138,401z M122,395h13V291
		h-13V395z"/>
</g>
<rect x="119" y="326" class="st2" width="19" height="72"/>
<g>
	<rect x="261" y="288" class="st1" width="122" height="110"/>
	<path d="M383,401H261c-1.7,0-3-1.3-3-3V288c0-1.7,1.3-3,3-3h122c1.7,0,3,1.3,3,3v110C386,399.7,384.7,401,383,401z M264,395h116
		V291H264V395z"/>
</g>
<g>
	<path class="st1" d="M318,232.1c0-5.1,0-10.2,0-15.4c0-1.4-0.1-2.9-0.3-4.3c-1-5.4-3.7-9.7-7.1-13.2
		c-10.6-11.1-23.5-15.4-37.2-16.5c-6.3-0.5-12.7-0.2-19.1-0.2c-8-0.1-15.8,1.2-23.3,4.1c-8.3,3.2-15.9,7.7-21.8,15.5
		c-2.9,3.8-5.1,8.1-5.2,13.5c-0.1,5.8-0.1,11.7,0,17.5"/>
	<path d="M203.9,236.3c-1.8,0-3.2-1.4-3.3-3.2c-0.1-5.4-0.1-11.1,0-17.6c0.1-5.4,1.9-10.3,5.9-15.4c5.6-7.3,13-12.6,23.2-16.5
		c7.5-2.9,15.5-4.3,24-4.3c0.2,0,0.4,0,0.5,0c1.9,0,3.9,0,5.8,0c4.4,0,9-0.1,13.5,0.3c16.4,1.3,29.3,7,39.3,17.5
		c4.4,4.5,7,9.4,8,14.9c0.3,1.4,0.4,2.9,0.4,4.9c0,4.9,0,10,0,15.4c0,1.8-1.5,3.2-3.3,3.2c0,0,0,0,0,0c-1.8,0-3.2-1.5-3.2-3.3
		c0-5.4,0-10.4,0-15.3c0-1.5-0.1-2.7-0.3-3.7c-0.8-4.2-2.8-8-6.3-11.6c-9-9.4-20.2-14.4-35.1-15.5c-4.2-0.3-8.7-0.3-12.9-0.2
		c-2,0-3.9,0-5.9,0c-8,0-15.2,1.2-22.2,3.9c-9,3.5-15.5,8.1-20.4,14.4c-3.1,4-4.5,7.6-4.5,11.5c-0.1,6.4-0.1,12.1,0,17.4
		C207.2,234.7,205.7,236.2,203.9,236.3C203.9,236.3,203.9,236.3,203.9,236.3z"/>
</g>
<path d="M260.9,172.2C260.9,172.2,260.9,172.2,260.9,172.2c-17.4,0-31.5-14.2-31.5-31.6c0-5,1.1-9.8,3.4-14.3c0.7-1.5,2.6-2.1,4-1.3
	c1.5,0.7,2.1,2.6,1.3,4c-1.8,3.6-2.7,7.5-2.7,11.5c0,14.1,11.4,25.6,25.5,25.6c0,0,0,0,0.1,0c6.7,0,13.1-2.6,17.9-7.4
	c4.9-4.9,7.6-11.3,7.6-18.2c0-5.6-1.8-10.9-5.1-15.4c-1-1.3-0.7-3.2,0.6-4.2c1.3-1,3.2-0.7,4.2,0.6c4.2,5.5,6.4,12,6.4,19
	c0,8.5-3.3,16.5-9.3,22.5C277.1,168.9,269.3,172.2,260.9,172.2z"/>
<polygon points="382.8,398.2 260.8,288.3 132.8,255.3 132.9,254.7 261.2,287.7 261.2,287.8 383.2,397.8 "/>
<rect x="292.7" y="310" transform="matrix(0.987 -0.1608 0.1608 0.987 -53.1233 51.7472)" width="0.7" height="88.1"/>
<polygon class="st3" points="261,292.1 263.6,397.5 300,397 286,311 261,288 "/>
<g>
	<g>
		<path class="st4" d="M134.6,167"/>
	</g>
</g>
<rect x="246.6" y="160.4" transform="matrix(0.243 -0.97 0.97 0.243 35.8377 367.7623)" width="14" height="1"/>
<g>
	<line class="st1" x1="317" y1="311" x2="336" y2="311"/>
	<path d="M336,314h-19c-1.7,0-3-1.3-3-3s1.3-3,3-3h19c1.7,0,3,1.3,3,3S337.7,314,336,314z"/>
</g>
<path d="M235,129c-0.8,0-1.5-0.3-2.1-0.9c-0.1-0.1-13.8-14.1-0.2-30.1c10.4-12.2,23.9-11.8,33.7-11.5c4.7,0.1,9.1,0.3,10.7-1.2
	c0.2-0.2,0.9-0.9,0.9-3.4c0-1.9,1.3-3,2.5-3.3c1.4-0.3,3.6-0.8,8.3,9.5c2.8,6.1,10.8,26.8-2.4,36.6c-1.3,1-3.2,0.7-4.2-0.6
	c-1-1.3-0.7-3.2,0.6-4.2c3-2.2,4.6-5.5,4.9-10.1c0.5-7.6-2.9-16.3-5.5-21.4c-0.3,0.4-0.6,0.8-1,1.2c-3.4,3.3-8.8,3.1-15,2.9
	c-9.1-0.3-20.4-0.6-28.9,9.4c-10.1,11.8-0.6,21.5-0.2,21.9c1.2,1.2,1.2,3.1,0,4.2C236.5,128.7,235.8,129,235,129z"/>
<path d="M281.3,122.8l-0.6-0.2c3.3-10.6,1.5-23.6,0.6-25.4c-1,2.4-2.2,3.9-3.9,4.5c-3.3,1.3-7.4-0.5-12.8-2.8
	c-6.5-2.8-14.5-6.3-23.6-4.8l-0.1-0.7c9.2-1.6,17.4,2,24,4.8c5.2,2.2,9.2,4,12.2,2.8c1.5-0.6,2.7-2,3.6-4.3c0.2-0.6,0.6-0.5,0.7-0.4
	C282.8,97,284.7,111.7,281.3,122.8z M281.4,97L281.4,97L281.4,97z"/>
<path d="M203.5,286.6c-2.3-8.1-4.9-14.6-5.8-14.6l-0.1-0.7c1.9-0.2,5.2,10.5,6.5,15.1L203.5,286.6z"/>
<rect x="294.8" y="188.1" width="0.7" height="46.4"/>
<g class="st5">
	<g>
		<defs>
			<path id="SVGID_3_" d="M266.2,169.6c-0.4,0-0.9,0-1.3,0c-15.8-0.7-28.1-14.2-27.4-30.1c0.3-7.7,3.6-14.8,9.3-20
				c5.6-5.2,13-7.8,20.6-7.5c15.8,0.7,28.2,14.1,27.5,29.9c-0.3,7.8-3.7,14.9-9.4,20.1C280.2,166.9,273.4,169.6,266.2,169.6z
				 M266.1,112.5c-7.1,0-13.8,2.6-19,7.4c-5.6,5.1-8.8,12.1-9.1,19.6l0,0c-0.7,15.6,11.4,28.8,26.9,29.5c7.5,0.3,14.7-2.3,20.3-7.4
				c5.6-5.1,8.9-12.2,9.2-19.8c0.7-15.5-11.5-28.7-27-29.4C267,112.5,266.5,112.5,266.1,112.5z"/>
		</defs>
		<use xlink:href="#SVGID_3_"  style="overflow:visible;"/>
		<clipPath id="SVGID_4_">
			<use xlink:href="#SVGID_3_"  style="overflow:visible;"/>
		</clipPath>
		<path class="st6" d="M268.8,155.7c-0.4,0-0.9,0-1.3,0c-15.8-0.7-28.1-14.2-27.4-30.1c0.3-7.7,3.6-14.8,9.3-20
			c5.6-5.2,13-7.8,20.6-7.5c15.8,0.7,28.2,14.1,27.5,29.9c-0.3,7.8-3.7,14.9-9.4,20.1C282.8,153,276,155.7,268.8,155.7z
			 M240.6,125.6c-0.7,15.6,11.4,28.8,26.9,29.5c7.5,0.3,14.7-2.3,20.3-7.4c5.6-5.1,8.9-12.2,9.2-19.8c0.7-15.5-11.5-28.7-27-29.4
			c-7.5-0.3-14.7,2.3-20.3,7.4C244.1,111.1,240.9,118,240.6,125.6L240.6,125.6z"/>
	</g>
	<path d="M401.1,293.3l-0.2,0l-283-12.3l1.4-32.5l0.2,0l283,12.3L401.1,293.3z M118.4,280.6l282.2,12.2l1.4-31.5l-282.2-12.2
		L118.4,280.6z"/>
	<path d="M396.3,404.2l-19.5-0.8l0-0.2l4.8-110.1l19.5,0.8l0,0.2L396.3,404.2z M377.3,402.9l18.5,0.8l4.7-109.4l-18.5-0.8
		L377.3,402.9z"/>
	<path d="M377.3,403.4l-0.2,0l-122.1-5.3l0-0.2l4.8-110.1l0.2,0l122.1,5.3l0,0.2L377.3,403.4z M255.4,397.6l121.4,5.3l4.7-109.4
		l-121.4-5.3L255.4,397.6z"/>
	<path d="M319.5,234.6l-0.5,0c0.3-5.4,0.5-10.4,0.7-15.3c0.1-1.7,0-3.1-0.2-4.3c-0.7-4.8-2.8-9.2-6.5-13.4
		c-9-10.3-20.9-16.2-36.3-18c-4.4-0.5-8.8-0.7-13.2-0.8c-1.9-0.1-3.9-0.1-5.9-0.2c-8.2-0.4-16.1,0.6-23.4,3.1
		c-9.7,3.3-16.8,7.9-22.3,14.4c-3.6,4.3-5.5,8.5-5.7,13.1c-0.4,6.4-0.6,12.2-0.8,17.5l-0.5,0c0.2-5.3,0.4-11.1,0.8-17.5
		c0.3-4.7,2.1-8.9,5.8-13.4c5.6-6.6,12.7-11.3,22.5-14.6c7.4-2.5,15.3-3.5,23.6-3.1c1.9,0.1,3.9,0.2,5.8,0.2
		c4.3,0.1,8.8,0.3,13.2,0.8c15.6,1.9,27.5,7.9,36.6,18.2c3.8,4.3,5.9,8.7,6.6,13.7c0.2,1.2,0.2,2.6,0.2,4.3
		C320,224.2,319.8,229.2,319.5,234.6z"/>
	<polygon points="376.9,403.3 259.8,288.2 133.2,249.7 133.4,249.2 260,287.8 260.1,287.8 377.2,403 	"/>
	<rect x="288.9" y="311.3" transform="matrix(0.993 -0.118 0.118 0.993 -39.9 36.589)" width="0.5" height="88.1"/>
	<path d="M294.4,398.8l-36.9-1.1l0-0.2l2-105.4l0.2-4.7l24.4,24.5l0,0.1L294.4,398.8z M258,397.2l35.9,1.1l-10.2-86.2l-23.5-23.6
		l-0.2,3.5L258,397.2z"/>
	<rect x="251" y="160.4" transform="matrix(0.2856 -0.9584 0.9584 0.2856 30.3008 362.0314)" width="14" height="0.5"/>
	
		<rect x="324.1" y="304.3" transform="matrix(4.327663e-02 -0.9991 0.9991 4.327663e-02 -3.1748 624.2648)" width="0.5" height="19"/>
	<path d="M287.3,123.8l-0.5-0.2c3.9-10.9,2.5-24.4,1.6-25.5c0,0,0,0,0,0c-1.1,2.4-2.4,3.8-4.1,4.4c-3.3,1.2-7.4-0.8-12.6-3.3
		c-6.4-3.1-14.3-7-23.4-5.8l-0.1-0.5c9.3-1.2,17.3,2.7,23.7,5.9c5.1,2.5,9.1,4.4,12.2,3.3c1.6-0.6,2.8-1.9,3.8-4.2
		c0.2-0.5,0.5-0.4,0.6-0.4C290,98.1,291.2,112.9,287.3,123.8z"/>
	<path d="M202.6,284.1c-1.7-7.2-4.2-14.9-5.2-14.9c0,0,0,0,0,0l0-0.5c0,0,0,0,0,0c1.9,0,4.8,11.7,5.7,15.3L202.6,284.1z"/>
	
		<rect x="274.1" y="212.6" transform="matrix(4.292914e-02 -0.9991 0.9991 4.292914e-02 71.935 500.7579)" width="46.4" height="0.5"/>
</g>
</svg>
