<svg id="Logo-oqo" xmlns="http://www.w3.org/2000/svg" width="89.755" height="34.652" viewBox="0 0 89.755 34.652">
  <path id="Trazado_10" data-name="Trazado 10" d="M49.8,27.072A14.4,14.4,0,1,1,35.372,12.7,14.352,14.352,0,0,1,49.8,27.072Z" transform="translate(-21 -12.643)" fill="#fff"/>
  <path id="Trazado_11" data-name="Trazado 11" d="M157.144,27.072A14.372,14.372,0,1,1,142.772,12.7,14.352,14.352,0,0,1,157.144,27.072Z" transform="translate(-67.389 -12.643)" fill="#fff"/>
  <path id="Trazado_12" data-name="Trazado 12" d="M85.977,29.869a3.769,3.769,0,0,1,1.079-5.226l.738-.511a3.769,3.769,0,0,1,5.226,1.079l7.271,10.964a14.185,14.185,0,0,0,3.352-9.2A14.372,14.372,0,1,0,89.272,41.344a15.714,15.714,0,0,0,4.033-.568Z" transform="translate(-44.281 -12.6)" fill="#fff"/>
  <path id="Trazado_13" data-name="Trazado 13" d="M120.917,65.008a3.408,3.408,0,1,1-3.408-3.408A3.418,3.418,0,0,1,120.917,65.008Z" transform="translate(-61.212 -33.764)" fill="#fff"/>
</svg>
